<svg width="302" height="74" viewBox="0 0 302 74" fill="none" xmlns="http://www.w3.org/2000/svg">
<path d="M45.0422 37.2165L16.1101 22.6863L37.1526 12.0984L29.1295 8.02275L0 22.6863L45.0422 45.3036L53.0652 41.2946L45.0422 37.2165Z" fill="#2A53DA"/>
<path d="M46.6197 73.4465L20.6475 60.427V38.1381L27.8805 41.7546V55.9565L46.6197 65.3593L70.6219 53.3915V61.4145L46.6197 73.4465Z" fill="#81F037"/>
<path d="M66.7407 35.2442L65.8841 34.7827L68.2516 33.6002L90.1481 22.6199L45.1059 0L37.1496 4.01149L51.2873 11.1779V11.2445L74.1046 22.6841L53.1289 33.2052L59.6385 36.4934C60.5593 36.9526 61.216 37.9401 61.216 38.9917V53.0627L68.3824 49.4462V37.6117C68.1874 35.9676 66.7407 35.2442 66.7407 35.2442Z" fill="#2A53DA"/>
<path d="M114.828 2.79274H121.188L137.748 45.3927H130.668L126.168 33.8127H109.728L105.288 45.3927H98.1482L114.828 2.79274ZM124.848 28.8327L118.008 10.1727L110.928 28.8327H124.848Z" fill="white"/>
<path d="M167.631 12.8127C167.231 12.3727 166.651 11.9127 165.891 11.4327C165.131 10.9127 164.231 10.4327 163.191 9.99274C162.151 9.55274 161.031 9.19274 159.831 8.91274C158.631 8.63274 157.391 8.49274 156.111 8.49274C153.311 8.49274 151.231 9.01274 149.871 10.0527C148.511 11.0927 147.831 12.5327 147.831 14.3727C147.831 15.7327 148.211 16.8127 148.971 17.6127C149.731 18.3727 150.891 19.0127 152.451 19.5327C154.011 20.0527 155.971 20.6127 158.331 21.2127C161.211 21.8927 163.711 22.7127 165.831 23.6727C167.951 24.5927 169.571 25.8327 170.691 27.3927C171.811 28.9527 172.371 31.0127 172.371 33.5727C172.371 35.7327 171.971 37.5927 171.171 39.1527C170.371 40.7127 169.251 41.9927 167.811 42.9927C166.371 43.9527 164.711 44.6727 162.831 45.1527C160.951 45.5927 158.931 45.8127 156.771 45.8127C154.651 45.8127 152.531 45.5927 150.411 45.1527C148.331 44.7127 146.331 44.0727 144.411 43.2327C142.531 42.3527 140.791 41.2927 139.191 40.0527L142.251 34.2927C142.771 34.8127 143.511 35.3927 144.471 36.0327C145.471 36.6327 146.611 37.2127 147.891 37.7727C149.211 38.3327 150.631 38.8127 152.151 39.2127C153.711 39.5727 155.291 39.7527 156.891 39.7527C159.571 39.7527 161.611 39.2927 163.011 38.3727C164.451 37.4127 165.171 36.0527 165.171 34.2927C165.171 32.8527 164.711 31.7127 163.791 30.8727C162.871 29.9927 161.531 29.2527 159.771 28.6527C158.011 28.0527 155.911 27.4527 153.471 26.8527C150.671 26.0927 148.331 25.2727 146.451 24.3927C144.571 23.4727 143.151 22.3127 142.191 20.9127C141.271 19.4727 140.811 17.6527 140.811 15.4527C140.811 12.6527 141.491 10.2927 142.851 8.37274C144.211 6.41274 146.051 4.95274 148.371 3.99274C150.731 2.99274 153.371 2.49274 156.291 2.49274C158.211 2.49274 160.031 2.71274 161.751 3.15274C163.471 3.55274 165.071 4.11274 166.551 4.83274C168.071 5.55274 169.451 6.37274 170.691 7.29274L167.631 12.8127Z" fill="white"/>
<path d="M179.11 45.3927V2.79274H196.99C198.91 2.79274 200.67 3.19274 202.27 3.99274C203.87 4.79274 205.27 5.85274 206.47 7.17274C207.67 8.49274 208.59 9.97274 209.23 11.6127C209.87 13.2527 210.19 14.9327 210.19 16.6527C210.19 19.0127 209.65 21.2727 208.57 23.4327C207.53 25.5527 206.03 27.2727 204.07 28.5927C202.15 29.9127 199.91 30.5727 197.35 30.5727H185.83V45.3927H179.11ZM185.83 24.6327H196.93C198.21 24.6327 199.33 24.2927 200.29 23.6127C201.25 22.8927 201.99 21.9327 202.51 20.7327C203.07 19.5327 203.35 18.1727 203.35 16.6527C203.35 15.0927 203.03 13.7127 202.39 12.5127C201.75 11.3127 200.91 10.3927 199.87 9.75274C198.87 9.07274 197.77 8.73274 196.57 8.73274H185.83V24.6327Z" fill="white"/>
<path d="M216.493 45.3927V2.79274H223.213V45.3927H216.493Z" fill="white"/>
<path d="M232.841 45.3927V2.79274H251.381C253.301 2.79274 255.061 3.19274 256.661 3.99274C258.261 4.79274 259.641 5.85274 260.801 7.17274C262.001 8.49274 262.921 9.97274 263.561 11.6127C264.241 13.2527 264.581 14.9327 264.581 16.6527C264.581 18.5327 264.241 20.3327 263.561 22.0527C262.881 23.7727 261.901 25.2527 260.621 26.4927C259.381 27.7327 257.921 28.6327 256.241 29.1927L266.261 45.3927H258.701L249.461 30.5727H239.561V45.3927H232.841ZM239.561 24.6327H251.321C252.561 24.6327 253.661 24.2727 254.621 23.5527C255.581 22.8327 256.341 21.8727 256.901 20.6727C257.461 19.4327 257.741 18.0927 257.741 16.6527C257.741 15.1727 257.421 13.8527 256.781 12.6927C256.141 11.4927 255.301 10.5327 254.261 9.81274C253.261 9.09274 252.161 8.73274 250.961 8.73274H239.561V24.6327Z" fill="white"/>
<path d="M301.729 39.4527V45.3927H272.509V2.79274H301.189V8.73274H279.229V20.8527H298.249V26.4327H279.229V39.4527H301.729Z" fill="white"/>
<path d="M98.1482 63.2677C98.1482 62.3577 98.3022 61.4687 98.6102 60.6007C98.9322 59.7187 99.3942 58.9207 99.9962 58.2067C100.612 57.4787 101.361 56.9047 102.243 56.4847C103.125 56.0507 104.126 55.8337 105.246 55.8337C106.576 55.8337 107.717 56.1417 108.669 56.7577C109.621 57.3597 110.328 58.1367 110.79 59.0887L109.299 60.0547C109.005 59.4247 108.627 58.9277 108.165 58.5637C107.717 58.1857 107.227 57.9197 106.695 57.7657C106.177 57.6117 105.666 57.5347 105.162 57.5347C104.336 57.5347 103.601 57.7027 102.957 58.0387C102.327 58.3747 101.795 58.8227 101.361 59.3827C100.927 59.9427 100.598 60.5727 100.374 61.2727C100.164 61.9587 100.059 62.6517 100.059 63.3517C100.059 64.1217 100.185 64.8637 100.437 65.5777C100.703 66.2917 101.067 66.9217 101.529 67.4677C101.991 68.0137 102.537 68.4477 103.167 68.7697C103.797 69.0917 104.483 69.2527 105.225 69.2527C105.743 69.2527 106.275 69.1617 106.821 68.9797C107.367 68.7977 107.878 68.5177 108.354 68.1397C108.83 67.7477 109.208 67.2437 109.488 66.6277L111.063 67.4887C110.755 68.2307 110.279 68.8607 109.635 69.3787C108.991 69.8967 108.27 70.2887 107.472 70.5547C106.688 70.8207 105.911 70.9537 105.141 70.9537C104.119 70.9537 103.181 70.7367 102.327 70.3027C101.473 69.8547 100.731 69.2667 100.101 68.5387C99.4852 67.7967 99.0022 66.9707 98.6522 66.0607C98.3162 65.1367 98.1482 64.2057 98.1482 63.2677Z" fill="white"/>
<path d="M120.573 70.9327C119.523 70.9327 118.571 70.7227 117.717 70.3027C116.863 69.8827 116.121 69.3157 115.491 68.6017C114.875 67.8737 114.399 67.0617 114.063 66.1657C113.727 65.2557 113.559 64.3247 113.559 63.3727C113.559 62.3787 113.734 61.4337 114.084 60.5377C114.448 59.6277 114.945 58.8227 115.575 58.1227C116.219 57.4087 116.968 56.8487 117.822 56.4427C118.676 56.0227 119.607 55.8127 120.615 55.8127C121.665 55.8127 122.617 56.0297 123.471 56.4637C124.325 56.8977 125.06 57.4787 125.676 58.2067C126.292 58.9347 126.768 59.7467 127.104 60.6427C127.44 61.5387 127.608 62.4557 127.608 63.3937C127.608 64.3877 127.433 65.3397 127.083 66.2497C126.733 67.1457 126.236 67.9507 125.592 68.6647C124.962 69.3647 124.22 69.9177 123.366 70.3237C122.512 70.7297 121.581 70.9327 120.573 70.9327ZM115.47 63.3727C115.47 64.1287 115.589 64.8637 115.827 65.5777C116.079 66.2777 116.429 66.9007 116.877 67.4467C117.325 67.9927 117.864 68.4267 118.494 68.7487C119.124 69.0707 119.824 69.2317 120.594 69.2317C121.392 69.2317 122.106 69.0637 122.736 68.7277C123.366 68.3917 123.898 67.9437 124.332 67.3837C124.78 66.8237 125.116 66.1937 125.34 65.4937C125.578 64.7937 125.697 64.0867 125.697 63.3727C125.697 62.6167 125.571 61.8887 125.319 61.1887C125.081 60.4887 124.731 59.8657 124.269 59.3197C123.821 58.7597 123.282 58.3257 122.652 58.0177C122.036 57.6957 121.35 57.5347 120.594 57.5347C119.796 57.5347 119.082 57.7027 118.452 58.0387C117.822 58.3607 117.283 58.8017 116.835 59.3617C116.401 59.9217 116.065 60.5517 115.827 61.2517C115.589 61.9377 115.47 62.6447 115.47 63.3727Z" fill="white"/>
<path d="M131.494 70.8277V55.9177H136.66C138.256 55.9177 139.586 56.2537 140.65 56.9257C141.728 57.5837 142.533 58.4797 143.065 59.6137C143.597 60.7337 143.863 61.9797 143.863 63.3517C143.863 64.8637 143.569 66.1797 142.981 67.2997C142.393 68.4197 141.56 69.2877 140.482 69.9037C139.404 70.5197 138.13 70.8277 136.66 70.8277H131.494ZM141.952 63.3517C141.952 62.2317 141.742 61.2377 141.322 60.3697C140.916 59.5017 140.321 58.8227 139.537 58.3327C138.753 57.8427 137.794 57.5977 136.66 57.5977H133.384V69.1477H136.66C137.808 69.1477 138.774 68.8957 139.558 68.3917C140.342 67.8737 140.937 67.1807 141.343 66.3127C141.749 65.4307 141.952 64.4437 141.952 63.3517Z" fill="white"/>
<path d="M147.786 70.8277V55.9177H149.676V70.8277H147.786Z" fill="white"/>
<path d="M156.391 59.4037V70.8277H154.501V55.9177H156.097L165.211 67.5727V55.9387H167.101V70.8277H165.379L156.391 59.4037Z" fill="white"/>
<path d="M177.906 70.9327C176.926 70.9327 176.009 70.7227 175.155 70.3027C174.315 69.8687 173.58 69.2947 172.95 68.5807C172.32 67.8527 171.83 67.0407 171.48 66.1447C171.13 65.2347 170.955 64.2967 170.955 63.3307C170.955 62.3227 171.13 61.3707 171.48 60.4747C171.83 59.5647 172.313 58.7597 172.929 58.0597C173.559 57.3597 174.294 56.8137 175.134 56.4217C175.988 56.0157 176.912 55.8127 177.906 55.8127C179.348 55.8127 180.538 56.1137 181.476 56.7157C182.414 57.3177 183.121 58.1017 183.597 59.0677L182.148 60.0757C181.714 59.2077 181.119 58.5637 180.363 58.1437C179.607 57.7237 178.774 57.5137 177.864 57.5137C177.108 57.5137 176.422 57.6747 175.806 57.9967C175.19 58.3187 174.658 58.7597 174.21 59.3197C173.776 59.8657 173.44 60.4887 173.202 61.1887C172.978 61.8887 172.866 62.6167 172.866 63.3727C172.866 64.1707 172.992 64.9267 173.244 65.6407C173.51 66.3407 173.881 66.9637 174.357 67.5097C174.833 68.0417 175.386 68.4617 176.016 68.7697C176.646 69.0777 177.325 69.2317 178.053 69.2317C178.907 69.2317 179.719 69.0147 180.489 68.5807C181.259 68.1467 181.987 67.4817 182.673 66.5857V68.5387C181.329 70.1347 179.74 70.9327 177.906 70.9327ZM182.442 64.8217H179.229V63.3937H184.038V70.8277H182.442V64.8217Z" fill="white"/>
<path d="M198.624 55.9177H200.22L206.31 70.8277H204.294L202.53 66.4597H196.272L194.529 70.8277H192.513L198.624 55.9177ZM202.11 64.9897L199.422 58.1017L196.65 64.9897H202.11Z" fill="white"/>
<path d="M208.04 63.2677C208.04 62.3577 208.194 61.4687 208.502 60.6007C208.824 59.7187 209.286 58.9207 209.888 58.2067C210.504 57.4787 211.253 56.9047 212.135 56.4847C213.017 56.0507 214.018 55.8337 215.138 55.8337C216.468 55.8337 217.609 56.1417 218.561 56.7577C219.513 57.3597 220.22 58.1367 220.682 59.0887L219.191 60.0547C218.897 59.4247 218.519 58.9277 218.057 58.5637C217.609 58.1857 217.119 57.9197 216.587 57.7657C216.069 57.6117 215.558 57.5347 215.054 57.5347C214.228 57.5347 213.493 57.7027 212.849 58.0387C212.219 58.3747 211.687 58.8227 211.253 59.3827C210.819 59.9427 210.49 60.5727 210.266 61.2727C210.056 61.9587 209.951 62.6517 209.951 63.3517C209.951 64.1217 210.077 64.8637 210.329 65.5777C210.595 66.2917 210.959 66.9217 211.421 67.4677C211.883 68.0137 212.429 68.4477 213.059 68.7697C213.689 69.0917 214.375 69.2527 215.117 69.2527C215.635 69.2527 216.167 69.1617 216.713 68.9797C217.259 68.7977 217.77 68.5177 218.246 68.1397C218.722 67.7477 219.1 67.2437 219.38 66.6277L220.955 67.4887C220.647 68.2307 220.171 68.8607 219.527 69.3787C218.883 69.8967 218.162 70.2887 217.364 70.5547C216.58 70.8207 215.803 70.9537 215.033 70.9537C214.011 70.9537 213.073 70.7367 212.219 70.3027C211.365 69.8547 210.623 69.2667 209.993 68.5387C209.377 67.7967 208.894 66.9707 208.544 66.0607C208.208 65.1367 208.04 64.2057 208.04 63.2677Z" fill="white"/>
<path d="M228.911 55.9177H230.507L236.597 70.8277H234.581L232.817 66.4597H226.559L224.816 70.8277H222.8L228.911 55.9177ZM232.397 64.9897L229.709 58.1017L226.937 64.9897H232.397Z" fill="white"/>
<path d="M239.847 70.8277V55.9177H245.013C246.609 55.9177 247.939 56.2537 249.003 56.9257C250.081 57.5837 250.886 58.4797 251.418 59.6137C251.95 60.7337 252.216 61.9797 252.216 63.3517C252.216 64.8637 251.922 66.1797 251.334 67.2997C250.746 68.4197 249.913 69.2877 248.835 69.9037C247.757 70.5197 246.483 70.8277 245.013 70.8277H239.847ZM250.305 63.3517C250.305 62.2317 250.095 61.2377 249.675 60.3697C249.269 59.5017 248.674 58.8227 247.89 58.3327C247.106 57.8427 246.147 57.5977 245.013 57.5977H241.737V69.1477H245.013C246.161 69.1477 247.127 68.8957 247.911 68.3917C248.695 67.8737 249.29 67.1807 249.696 66.3127C250.102 65.4307 250.305 64.4437 250.305 63.3517Z" fill="white"/>
<path d="M266.261 69.1477V70.8277H256.139V55.9177H266.072V57.5977H258.029V62.4277H265.022V64.0027H258.029V69.1477H266.261Z" fill="white"/>
<path d="M283.008 70.8277V59.4457L278.094 68.2027H276.939L272.004 59.4457V70.8277H270.114V55.9177H272.109L277.506 65.5987L282.924 55.9177H284.898V70.8277H283.008Z" fill="white"/>
<path d="M290.296 55.9177L294.811 63.6877L299.368 55.9177H301.426L295.756 65.3887V70.8277H293.866V65.3467L288.217 55.9177H290.296Z" fill="white"/>
</svg>
